# xmcd
#
# Track frame offsets:
#	150
#	17937
#	37185
#	59935
#	85292
#	103957
#	131962
#	157160
#
# Disc length: 2472 seconds
#
# Revision: 1
# Processed by: cddbd v1.5.2PL0 Copyright (c) Steve Scherf et al.
# Submitted via: audiograbber 1.83.01
#
DISCID=7f09a608
DTITLE="Champion" Jack Dupree - Home - Charly Blues Masterworks Vol. 40
DYEAR=1996
DGENRE=Blues
TTITLE0=My Baby's Coming Home
TTITLE1=You Rascal You
TTITLE2=No Tomorrow
TTITLE3=The Heart Of The Blues Is Sound
TTITLE4=The Japanese Special
TTITLE5=Hard Feeling
TTITLE6=Blues From 1921
TTITLE7=Don't Mistreat Your Woman (When You Know You're Wrong Yourself)
EXTD=
EXTT0=
EXTT1=
EXTT2=
EXTT3=
EXTT4=
EXTT5=
EXTT6=
EXTT7=
PLAYORDER=
